<svg xmlns="http://www.w3.org/2000/svg" width="160" height="160" viewBox="0 0 160 160">
<rect x="20" y="20" width="10" height="10" fill="#eeddaa"/>
<rect x="30" y="20" width="10" height="10" fill="#eeddaa"/>
<rect x="40" y="20" width="10" height="10" fill="#eeddaa"/>
<rect x="70" y="20" width="10" height="10" fill="#888888"/>
<rect x="80" y="20" width="10" height="10" fill="#888888"/>
<rect x="20" y="30" width="10" height="10" fill="#eeddaa"/>
<rect x="30" y="30" width="10" height="10" fill="#eeddaa"/>
<rect x="40" y="30" width="10" height="10" fill="#eeddaa"/>
<rect x="50" y="30" width="10" height="10" fill="#eeddaa"/>
<rect x="60" y="30" width="10" height="10" fill="#888888"/>
<rect x="70" y="30" width="10" height="10" fill="#888888"/>
<rect x="80" y="30" width="10" height="10" fill="#888888"/>
<rect x="90" y="30" width="10" height="10" fill="#888888"/>
<rect x="20" y="40" width="10" height="10" fill="#eeddaa"/>
<rect x="30" y="40" width="10" height="10" fill="#eeddaa"/>
<rect x="40" y="40" width="10" height="10" fill="#eeddaa"/>
<rect x="50" y="40" width="10" height="10" fill="#888888"/>
<rect x="60" y="40" width="10" height="10" fill="#888888"/>
<rect x="70" y="40" width="10" height="10" fill="#888888"/>
<rect x="80" y="40" width="10" height="10" fill="#888888"/>
<rect x="90" y="40" width="10" height="10" fill="#888888"/>
<rect x="100" y="40" width="10" height="10" fill="#888888"/>
<rect x="110" y="40" width="10" height="10" fill="#888888"/>
<rect x="40" y="50" width="10" height="10" fill="#888888"/>
<rect x="50" y="50" width="10" height="10" fill="#888888"/>
<rect x="60" y="50" width="10" height="10" fill="#888888"/>
<rect x="70" y="50" width="10" height="10" fill="#888888"/>
<rect x="80" y="50" width="10" height="10" fill="#888888"/>
<rect x="90" y="50" width="10" height="10" fill="#888888"/>
<rect x="100" y="50" width="10" height="10" fill="#888888"/>
<rect x="110" y="50" width="10" height="10" fill="#888888"/>
<rect x="120" y="50" width="10" height="10" fill="#888888"/>
<rect x="30" y="60" width="10" height="10" fill="#888888"/>
<rect x="40" y="60" width="10" height="10" fill="#888888"/>
<rect x="50" y="60" width="10" height="10" fill="#888888"/>
<rect x="60" y="60" width="10" height="10" fill="#888888"/>
<rect x="70" y="60" width="10" height="10" fill="#888888"/>
<rect x="80" y="60" width="10" height="10" fill="#888888"/>
<rect x="90" y="60" width="10" height="10" fill="#888888"/>
<rect x="100" y="60" width="10" height="10" fill="#888888"/>
<rect x="110" y="60" width="10" height="10" fill="#888888"/>
<rect x="120" y="60" width="10" height="10" fill="#888888"/>
<rect x="40" y="70" width="10" height="10" fill="#888888"/>
<rect x="50" y="70" width="10" height="10" fill="#888888"/>
<rect x="60" y="70" width="10" height="10" fill="#888888"/>
<rect x="70" y="70" width="10" height="10" fill="#888888"/>
<rect x="80" y="70" width="10" height="10" fill="#888888"/>
<rect x="90" y="70" width="10" height="10" fill="#888888"/>
<rect x="100" y="70" width="10" height="10" fill="#888888"/>
<rect x="110" y="70" width="10" height="10" fill="#888888"/>
<rect x="120" y="70" width="10" height="10" fill="#888888"/>
<rect x="40" y="80" width="10" height="10" fill="#888888"/>
<rect x="50" y="80" width="10" height="10" fill="#888888"/>
<rect x="60" y="80" width="10" height="10" fill="#888888"/>
<rect x="70" y="80" width="10" height="10" fill="#888888"/>
<rect x="80" y="80" width="10" height="10" fill="#888888"/>
<rect x="90" y="80" width="10" height="10" fill="#888888"/>
<rect x="100" y="80" width="10" height="10" fill="#888888"/>
<rect x="110" y="80" width="10" height="10" fill="#888888"/>
<rect x="120" y="80" width="10" height="10" fill="#888888"/>
<rect x="10" y="130" width="10" height="10" fill="#999999"/>
<rect x="20" y="130" width="10" height="10" fill="#999999"/>
<rect x="30" y="130" width="10" height="10" fill="#999999"/>
<rect x="50" y="130" width="10" height="10" fill="#999999"/>
<rect x="60" y="130" width="10" height="10" fill="#999999"/>
<rect x="70" y="130" width="10" height="10" fill="#999999"/>
<rect x="80" y="130" width="10" height="10" fill="#999999"/>
<rect x="100" y="130" width="10" height="10" fill="#999999"/>
<rect x="110" y="130" width="10" height="10" fill="#999999"/>
<rect x="120" y="130" width="10" height="10" fill="#999999"/>
<rect x="130" y="130" width="10" height="10" fill="#999999"/>
<rect x="10" y="150" width="10" height="10" fill="#999999"/>
<rect x="20" y="150" width="10" height="10" fill="#999999"/>
<rect x="30" y="150" width="10" height="10" fill="#999999"/>
<rect x="50" y="150" width="10" height="10" fill="#999999"/>
<rect x="60" y="150" width="10" height="10" fill="#999999"/>
<rect x="70" y="150" width="10" height="10" fill="#999999"/>
<rect x="80" y="150" width="10" height="10" fill="#999999"/>
<rect x="100" y="150" width="10" height="10" fill="#999999"/>
<rect x="110" y="150" width="10" height="10" fill="#999999"/>
<rect x="120" y="150" width="10" height="10" fill="#999999"/>
<rect x="130" y="150" width="10" height="10" fill="#999999"/>
</svg>
